<svg width="79" height="79" viewBox="0 0 79 79" fill="none" xmlns="http://www.w3.org/2000/svg">
<path d="M16.9855 78.6719L19.5987 78.6719L39.1973 78.6719L58.7959 78.6719L61.4091 78.6719C61.4091 69.3296 69.0852 61.6262 78.3945 61.6262L78.3945 59.0038L78.3945 39.3358L78.3945 19.6677L78.3945 17.0453C69.0852 17.0453 61.4091 9.342 61.4091 -0.00031895L58.7959 -0.000318721L39.1973 -0.000317008L19.5987 -0.000315294L16.9855 -0.000315066C16.9855 9.34201 9.3094 17.0453 6.3277e-05 17.0453L6.35062e-05 19.6677L6.52257e-05 39.3358L6.69451e-05 59.0038L6.71744e-05 61.6262C9.30941 61.6262 16.9855 69.3296 16.9855 78.6719Z" fill="currentColor"/>
<path fill-rule="evenodd" clip-rule="evenodd" d="M17.4754 35.0745L57.4893 35.0745L57.4893 43.2695L17.4754 43.2695L17.4754 35.0745Z" fill="white"/>
<path fill-rule="evenodd" clip-rule="evenodd" d="M44.6824 57.8193L38.9385 51.9943L51.6999 39.3211L38.1072 25.6803C38.1071 25.6802 38.1067 25.6797 40.9938 22.7824C43.881 19.885 43.881 19.885 43.8811 19.8851L63.2788 39.3515L44.6824 57.8193Z" fill="white"/>
</svg>
