<svg width="84" height="84" viewBox="0 0 84 84" fill="none" xmlns="http://www.w3.org/2000/svg">
<path d="M65.8 0H63H42H21H18.2C18.2 9.975 9.975 18.2 0 18.2V21V42V63V65.8C9.975 65.8 18.2 74.025 18.2 84H21H42H63H65.8C65.8 74.025 74.025 65.8 84 65.8V63V42V21V18.2C74.025 18.2 65.8 9.975 65.8 0Z" fill="currentColor"/>
<path d="M23.8142 26L41.9994 41.1484L60.1845 26H23.8142ZM19 29.3148V58H65V29.3148L43.1426 47.9071C42.823 48.1786 42.4182 48.3274 41.9998 48.3274C41.5814 48.3274 41.1766 48.1786 40.857 47.9071L19 29.3148Z" fill="#EEF9FC"/>
</svg>
