<svg width="84" height="84" viewBox="0 0 84 84" fill="none" xmlns="http://www.w3.org/2000/svg">
<path d="M65.8 0H63H42H21H18.2C18.2 9.975 9.975 18.2 0 18.2V21V42V63V65.8C9.975 65.8 18.2 74.025 18.2 84H21H42H63H65.8C65.8 74.025 74.025 65.8 84 65.8V63V42V21V18.2C74.025 18.2 65.8 9.975 65.8 0Z" fill="currentColor"/>
<path d="M60.2008 35.3504C60.2008 49.1754 42.0008 65.2754 42.0008 65.2754C42.0008 65.2754 23.8008 50.0504 23.8008 35.3504C23.8008 25.7254 32.0258 16.2754 42.0008 16.2754C51.9758 16.2754 60.2008 25.7254 60.2008 35.3504Z" fill="#EEF9FC"/>
<path d="M41.825 43.2252C46.0776 43.2252 49.525 39.7778 49.525 35.5252C49.525 31.2726 46.0776 27.8252 41.825 27.8252C37.5724 27.8252 34.125 31.2726 34.125 35.5252C34.125 39.7778 37.5724 43.2252 41.825 43.2252Z" fill="currentColor"/>
</svg>
