<svg width="84" height="84" viewBox="0 0 84 84" fill="none" xmlns="http://www.w3.org/2000/svg">
<path d="M65.8 0H63H42H21H18.2C18.2 9.975 9.975 18.2 0 18.2V21V42V63V65.8C9.975 65.8 18.2 74.025 18.2 84H21H42H63H65.8C65.8 74.025 74.025 65.8 84 65.8V63V42V21V18.2C74.025 18.2 65.8 9.975 65.8 0Z" fill="currentColor"/>
<path fill-rule="evenodd" clip-rule="evenodd" d="M64.0453 53.5822L57.2565 46.7935C55.9836 45.5206 53.8622 45.5206 52.5893 46.7935L48.1339 51.0365C40.4966 45.5206 38.1652 43.1892 33.2855 36.1883L37.5285 31.7329C38.8014 30.46 38.8014 28.3386 37.5285 27.0657L30.7398 20.277C29.4668 19.004 27.3454 19.004 26.0725 20.277L20.3442 26.2171C12.7069 33.8545 50.2558 71.8274 58.1052 63.9779L64.0454 58.2497C65.3183 56.9768 65.3182 54.8551 64.0453 53.5822Z" fill="#EEF9FC"/>
</svg>
