<svg width="18" height="14" viewBox="0 0 18 14" fill="none" xmlns="http://www.w3.org/2000/svg">
<path d="M16.045 0.544997H17.89V3.92H16.27C15.31 3.92 14.605 4.19 14.155 4.73C13.705 5.27 13.48 5.975 13.48 6.845V7.295H16.405V13.82H9.88V6.62C9.88 5 10.465 3.59 11.635 2.39C12.835 1.16 14.305 0.544997 16.045 0.544997ZM6.82 0.544997H8.665V3.92H7.045C6.085 3.92 5.38 4.19 4.93 4.73C4.48 5.27 4.255 5.975 4.255 6.845V7.295H7.18V13.82H0.655V6.62C0.655 5 1.24 3.59 2.41 2.39C3.61 1.16 5.08 0.544997 6.82 0.544997Z" fill="#56C2E1"/>
</svg>
