<svg width="70" height="70" viewBox="0 0 70 70" fill="none" xmlns="http://www.w3.org/2000/svg">
<path d="M0 34.9995V15.0292C8.23521 15.0292 15.0293 8.23518 15.0293 0H34.9996C34.9996 19.3527 19.3527 34.9995 0 34.9995Z" fill="white"/>
<path d="M34.9991 0H54.9696C54.9696 8.23518 61.7636 15.0292 69.9988 15.0292V34.9995C50.8519 34.9995 34.9991 19.3527 34.9991 0Z" fill="white"/>
<path d="M69.9986 35.001V54.9713C61.7633 54.9713 54.9693 61.7653 54.9693 70.0005H34.9989C34.9989 50.6478 50.8517 35.001 69.9986 35.001Z" fill="white"/>
<path d="M34.9996 70.0005H15.0293C15.0293 61.7653 8.23521 54.9713 0 54.9713V35.001C19.3527 35.001 34.9996 50.6478 34.9996 70.0005Z" fill="white"/>
</svg>
