<svg width="145" height="64" viewBox="0 0 145 64" fill="none" xmlns="http://www.w3.org/2000/svg">
<g clip-path="url(#clip0_281_1194)">
<path d="M0 18.1569V7.85513C4.23451 7.85513 7.82743 4.37827 7.82743 0H18.0929C18.0929 10.0443 10.0088 18.1569 0 18.1569Z" fill="white"/>
<path d="M18.0929 0H28.3584C28.3584 4.2495 31.823 7.85513 36.1858 7.85513V18.1569C26.177 18.1569 18.0929 10.0443 18.0929 0Z" fill="white"/>
<path d="M36.0578 18.1572V28.459C31.8233 28.459 28.2303 31.9359 28.2303 36.3142H17.9648C18.0932 26.2699 26.1772 18.1572 36.0578 18.1572Z" fill="white"/>
<path d="M18.0929 36.1853H7.82743C7.82743 31.9358 4.36283 28.3301 0 28.3301V18.0283C10.0088 18.1571 18.0929 26.2698 18.0929 36.1853Z" fill="white"/>
<path d="M56.7168 0.772461H62.1062C66.3407 0.772461 69.1637 3.60546 69.1637 8.37005C69.1637 13.1346 66.3407 15.9676 62.1062 15.9676H56.7168V0.772461ZM61.9779 14.1648C65.1858 14.1648 67.1106 12.2332 67.1106 8.49882C67.1106 4.76441 65.3142 2.83282 61.9779 2.83282H58.8982V14.1648H61.9779Z" fill="white"/>
<path d="M71.7301 0.772461H74.0398V3.21914H71.7301V0.772461ZM71.8584 5.15073H73.9115V16.0964H71.8584V5.15073Z" fill="white"/>
<path d="M76.2213 17.5126H78.2744C78.5311 18.5427 79.6859 19.1866 81.0974 19.1866H81.3541C83.1505 19.1866 84.562 18.1564 84.562 15.9673V14.422C84.0488 15.3234 82.8939 16.2248 81.3541 16.2248C78.7877 16.2248 76.478 14.422 76.478 10.6876C76.478 6.95321 78.7877 5.15039 81.3541 5.15039C83.0222 5.15039 84.1771 6.0518 84.562 6.95321V5.15039H86.6151V16.0961C86.6151 18.8003 84.6904 20.8607 81.2258 20.8607C78.2744 20.8607 76.478 19.4442 76.2213 17.5126ZM81.6107 14.2932C83.1505 14.2932 84.562 12.8767 84.562 10.4301C84.562 7.98339 83.1505 6.56689 81.739 6.56689H81.4824C79.9426 6.56689 78.5311 7.59707 78.5311 10.4301C78.5311 13.1343 79.8142 14.2932 81.3541 14.2932H81.6107Z" fill="white"/>
<path d="M89.6947 0.772461H92.0044V3.21914H89.6947V0.772461ZM89.823 5.15073H91.8761V16.0964H89.823V5.15073Z" fill="white"/>
<path d="M101.243 16.0962H98.677C97.1372 16.0962 96.2389 15.1948 96.2389 13.6495V6.95337H93.8009V5.15056H96.2389V1.54492H98.292V5.15056H100.858V6.95337H98.292V13.392C98.292 14.0359 98.5487 14.2934 99.1903 14.2934H101.243V16.0962V16.0962Z" fill="white"/>
<path d="M109.841 16.0959C109.712 15.5808 109.712 14.4219 109.712 14.2931C109.327 15.3233 107.916 16.2247 106.248 16.2247C104.195 16.2247 102.655 14.8082 102.655 13.0054C102.655 10.5587 104.836 9.78607 106.633 9.6573L109.584 9.39975V9.14221C109.584 7.59694 108.686 6.69553 107.274 6.69553H107.146C105.991 6.69553 104.965 7.21062 104.836 8.36957H102.783C102.912 6.30921 104.708 5.02148 107.146 5.02148C110.097 5.02148 111.637 6.95307 111.637 9.14221V13.778C111.637 14.4219 111.637 15.4521 111.766 16.2247H109.841V16.0959ZM106.889 11.2026C105.606 11.3313 104.708 11.9752 104.708 12.8766C104.708 13.778 105.478 14.4219 106.504 14.4219H106.761C108.044 14.4219 109.712 13.2629 109.712 11.9752V11.0738L106.889 11.2026Z" fill="white"/>
<path d="M114.717 0.772461H116.77V16.0964H114.717V0.772461Z" fill="white"/>
<path d="M61.8496 25.754H61.5929C59.6681 25.754 58.385 26.7842 58.385 28.2007C58.385 29.3596 59.1549 30.1323 60.4381 30.3898L62.8761 30.9049C65.5708 31.42 66.9823 32.8365 66.9823 35.2832C66.9823 37.9874 64.6726 39.6614 61.3363 39.6614C57.7434 39.6614 55.4336 37.8586 55.3053 34.5105H57.7434C57.7434 36.5709 59.4115 37.7298 61.5929 37.7298H61.8496C63.9027 37.7298 65.0575 36.6997 65.0575 35.4119C65.0575 34.1242 64.2876 33.4803 62.6195 33.094L60.1814 32.5789C57.7434 32.0638 56.3319 30.6473 56.3319 28.3294C56.3319 25.8828 58.5133 23.9512 61.7212 23.9512C65.0575 23.9512 67.2389 25.754 67.3673 28.7158H65.1858C65.0575 26.7842 63.646 25.754 61.8496 25.754Z" fill="white"/>
<path d="M80.3274 33.7383C80.3274 37.3439 78.146 39.4043 75.4513 39.4043C73.9115 39.4043 72.6283 38.6316 72.1151 37.6014V43.525H70.062V28.3298H72.1151V29.8751C72.6283 28.8449 74.1681 28.0723 75.708 28.0723C78.2743 28.0723 80.3274 30.1326 80.3274 33.7383ZM71.9867 33.7383C71.9867 36.3137 73.5266 37.7302 75.0664 37.7302H75.323C76.9912 37.7302 78.2743 36.4425 78.2743 33.7383C78.2743 31.1628 76.9912 29.7463 75.323 29.7463H75.0664C73.5266 29.8751 71.9867 31.1628 71.9867 33.7383Z" fill="white"/>
<path d="M82.1239 33.7383C82.1239 30.3902 84.4336 28.0723 87.385 28.0723C90.3363 28.0723 92.646 30.3902 92.646 33.7383C92.646 37.0864 90.3363 39.4043 87.385 39.4043C84.4336 39.533 82.1239 37.2151 82.1239 33.7383ZM90.4646 33.7383C90.4646 31.1628 89.1814 29.7463 87.385 29.7463H87.2566C85.4602 29.7463 84.177 31.1628 84.177 33.7383C84.177 36.3137 85.4602 37.7302 87.2566 37.7302H87.5133C89.1814 37.7302 90.4646 36.3137 90.4646 33.7383Z" fill="white"/>
<path d="M100.987 39.2759H98.4202C96.8804 39.2759 95.9821 38.3745 95.9821 36.8292V30.1331H93.5441V28.3302H95.9821V24.7246H98.0352V28.3302H100.602V30.1331H98.0352V36.5717C98.0352 37.2156 98.2919 37.4731 98.9335 37.4731H100.987V39.2759V39.2759Z" fill="white"/>
<path d="M103.168 23.9512H105.221V39.2751H103.168V23.9512Z" fill="white"/>
<path d="M108.301 23.9512H110.611V26.3979H108.301V23.9512ZM108.429 28.3294H110.482V39.2751H108.429V28.3294Z" fill="white"/>
<path d="M112.792 40.6923H114.845C115.102 41.7224 116.257 42.3663 117.668 42.3663H117.925C119.721 42.3663 121.133 41.3361 121.133 39.147V37.6017C120.62 38.5031 119.465 39.4045 117.925 39.4045C115.359 39.4045 113.049 37.6017 113.049 33.8673C113.049 30.1329 115.359 28.3301 117.925 28.3301C119.593 28.3301 120.748 29.2315 121.133 30.1329V28.3301H123.186V39.2758C123.186 41.98 121.261 44.0403 117.797 44.0403C114.717 44.0403 113.049 42.6238 112.792 40.6923ZM118.053 37.4729C119.593 37.4729 121.005 36.0564 121.005 33.6098C121.005 31.1631 119.593 29.7466 118.182 29.7466H118.053C116.513 29.7466 115.102 30.7768 115.102 33.6098C115.102 36.314 116.385 37.4729 117.925 37.4729H118.053Z" fill="white"/>
<path d="M128.447 39.2751H126.394V23.9512H128.447V29.8747C129.088 28.8445 130.243 28.0719 131.911 28.0719C134.478 28.0719 135.889 29.6172 135.889 31.9351V39.2751H133.836V32.3214C133.836 30.7761 133.195 29.7459 131.655 29.7459H131.398C129.858 29.7459 128.447 30.9049 128.447 32.9653V39.2751Z" fill="white"/>
<path d="M145 39.2759H142.434C140.894 39.2759 139.996 38.3745 139.996 36.8292V30.1331H137.558V28.3302H139.996V24.7246H142.049V28.3302H144.615V30.1331H142.049V36.5717C142.049 37.2156 142.306 37.4731 142.947 37.4731H145V39.2759V39.2759Z" fill="white"/>
<path d="M56.4601 63.7419V48.418H59.4114V54.7278H66.084V48.418H69.0353V63.7419H66.084V57.4321H59.4114V63.7419H56.4601Z" fill="white"/>
<path d="M81.6106 60.2656C81.354 61.4245 80.7124 62.3259 79.9425 62.9698C79.0442 63.6136 78.0177 64 76.7345 64C75.323 64 74.0398 63.4849 73.0133 62.4547C71.9867 61.4245 71.4734 60.008 71.4734 58.334C71.4734 56.6599 71.9867 55.2434 72.885 54.2132C73.7832 53.1831 75.0664 52.668 76.7345 52.668C78.2743 52.668 79.5575 53.1831 80.4558 54.2132C81.354 55.2434 81.7389 56.5311 81.7389 58.2052C81.7389 58.4627 81.7389 58.7203 81.7389 59.2354H74.4248C74.4248 60.008 74.8097 60.5231 75.1947 61.0382C75.708 61.5533 76.2212 61.6821 76.8628 61.6821H76.9911C77.5044 61.6821 77.8894 61.5533 78.2743 61.2957C78.6593 61.0382 78.7876 60.6519 78.9159 60.2656H81.6106V60.2656ZM76.4779 54.8571C75.8363 54.8571 75.323 54.9859 74.9381 55.3722C74.5531 55.7585 74.2965 56.2736 74.2965 56.9175H78.9159C78.9159 56.2736 78.6593 55.7585 78.2743 55.3722C77.8894 54.9859 77.3761 54.8571 76.7345 54.8571H76.4779Z" fill="white"/>
<path d="M90.0796 63.7423C90.0796 63.4847 89.9513 62.9696 89.9513 62.4546C89.1814 63.4847 88.1549 63.9998 86.7434 63.9998C85.7168 63.9998 84.9469 63.7423 84.177 63.0984C83.5354 62.4546 83.1505 61.6819 83.1505 60.7805C83.1505 59.6216 83.5354 58.8489 84.3053 58.2051C85.0752 57.5612 85.9735 57.3037 87.1283 57.1749L89.823 56.9173V56.6598C89.823 56.1447 89.6947 55.7584 89.3097 55.3721C89.0531 54.9857 88.5398 54.857 88.0266 54.857H87.8982C87.385 54.857 87 54.9857 86.615 55.2433C86.2301 55.5008 86.1018 55.7584 86.1018 56.1447H83.2788C83.4071 55.1145 83.9204 54.2131 84.6903 53.5692C85.5885 52.9254 86.615 52.5391 87.8982 52.5391C89.3097 52.5391 90.4646 52.9254 91.2345 53.5692C92.0044 54.2131 92.5177 55.2433 92.5177 56.531V61.2956C92.5177 62.4546 92.5177 63.2272 92.646 63.7423H90.0796ZM87.2566 61.6819C88.0266 61.6819 88.6681 61.4244 89.0531 61.0381C89.4381 60.6517 89.823 60.0079 89.823 59.2352V58.9777L87.5133 59.2352C87.1283 59.2352 86.7434 59.364 86.3584 59.6216C86.1018 59.8791 85.8451 60.1366 85.8451 60.523C85.8451 60.9093 85.9735 61.1668 86.2301 61.2956C86.615 61.5531 86.8717 61.6819 87.2566 61.6819Z" fill="white"/>
<path d="M95.341 63.7419V48.418H98.164V63.7419H95.341Z" fill="white"/>
<path d="M107.787 61.296V63.7427H104.964C103.04 63.7427 102.141 62.8413 102.141 60.9097V55.1149H99.8317V52.797H102.141V49.1914H104.964V52.797H107.402V55.1149H104.964V60.1371C104.964 60.6522 105.093 60.9097 105.221 61.1673C105.349 61.296 105.734 61.4248 106.248 61.4248H107.787V61.296Z" fill="white"/>
<path d="M112.536 57.6896V63.7419H109.713V48.418H112.536V54.3415C112.921 53.8264 113.305 53.3113 113.947 53.0538C114.589 52.7962 115.23 52.5387 115.872 52.5387C117.155 52.5387 118.053 52.925 118.695 53.6976C119.336 54.4703 119.593 55.5005 119.593 56.7882V63.7419H116.77V57.0457C116.77 56.4019 116.642 55.758 116.385 55.3717C116.128 54.9854 115.615 54.8566 115.102 54.8566H114.974C114.332 54.8566 113.819 55.1141 113.305 55.6292C112.792 56.2731 112.536 56.917 112.536 57.6896Z" fill="white"/>
</g>
<defs>
<clipPath id="clip0_281_1194">
<rect width="145" height="64" fill="white"/>
</clipPath>
</defs>
</svg>
